<svg t="1710399205432" class="icon" viewBox="0 0 1040 1024" version="1.1" xmlns="http://www.w3.org/2000/svg" p-id="1520" width="200" height="200"><path d="M1016.246154 512c0 278.449231-225.673846 504.123077-504.123077 504.123077S8 790.449231 8 512 233.673846 7.876923 512.123077 7.876923s504.123077 225.673846 504.123077 504.123077" fill="#5A89FF" p-id="1521"></path><path d="M468.012308 783.044923c-72.231385-50.018462-111.458462-102.793846-116.499693-156.908308-5.198769-55.926154 12.445538-98.540308 52.539077-126.818461l27.254154 38.596923c-25.915077 18.353231-36.391385 44.977231-32.768 83.810461 3.702154 39.542154 36.076308 80.738462 96.334769 122.486154l-26.860307 38.833231z" fill="#FFFFFF" p-id="1522"></path><path d="M456.118154 545.634462c-51.042462 0-92.553846-41.511385-92.553846-92.553847s41.511385-92.553846 92.553846-92.553846 92.553846 41.511385 92.553846 92.553846-41.511385 92.553846-92.553846 92.553847z m0-137.846154c-24.969846 0-45.292308 20.322462-45.292308 45.292307s20.322462 45.292308 45.292308 45.292308 45.292308-20.322462 45.292308-45.292308-20.322462-45.292308-45.292308-45.292307z" fill="#FFFFFF" p-id="1523"></path><path d="M592.073846 612.273231c-6.380308 0-12.366769-2.520615-16.777846-7.010462L490.934154 519.876923l33.634461-33.240615 67.66277 68.52923 107.283692-107.283692-248.201846-248.201846-107.362462 107.362462 78.060308 78.060307-33.398154 33.398154-94.838154-94.680615c-4.411077-4.411077-6.931692-10.476308-6.931692-16.699077s2.520615-12.288 6.931692-16.699077L434.614154 149.661538a23.630769 23.630769 0 0 1 33.398154 0l281.6 281.6a23.630769 23.630769 0 0 1 0 33.398154L608.772923 605.341538c-4.411077 4.489846-10.397538 6.931692-16.699077 6.931693z" fill="#FFFFFF" p-id="1524"></path><path d="M642.336492 621.292308l120.438154-117.602462 33.020062 33.815631-120.438154 117.602461z" fill="#FFFFFF" p-id="1525"></path><path d="M236.430769 739.958154h551.384616v47.261538H236.430769z" fill="#FFFFFF" p-id="1526"></path></svg>